<svg width="261" height="99" viewBox="0 0 261 99" fill="none" xmlns="http://www.w3.org/2000/svg">
<g filter="url(#filter0_d_27_206)">
<path d="M237.71 87.9445C235.054 87.9445 232.59 87.5285 230.318 86.6965C228.046 85.8325 226.078 84.6165 224.414 83.0485C222.782 81.4805 221.502 79.6405 220.574 77.5285C219.646 75.3845 219.182 73.0325 219.182 70.4725C219.182 67.9125 219.646 65.5765 220.574 63.4645C221.502 61.3205 222.798 59.4645 224.462 57.8965C226.126 56.3285 228.094 55.1285 230.366 54.2965C232.67 53.4325 235.182 53.0005 237.902 53.0005C241.07 53.0005 243.902 53.5285 246.398 54.5845C248.894 55.6405 250.958 57.1605 252.59 59.1445L246.542 64.6165C245.39 63.3685 244.142 62.4405 242.798 61.8325C241.486 61.1925 240.014 60.8725 238.382 60.8725C236.942 60.8725 235.63 61.0965 234.446 61.5445C233.262 61.9925 232.254 62.6485 231.422 63.5125C230.59 64.3445 229.934 65.3525 229.454 66.5365C229.006 67.6885 228.782 69.0005 228.782 70.4725C228.782 71.8805 229.006 73.1765 229.454 74.3605C229.934 75.5445 230.59 76.5685 231.422 77.4325C232.254 78.2645 233.246 78.9205 234.398 79.4005C235.582 79.8485 236.878 80.0725 238.286 80.0725C239.694 80.0725 241.07 79.8485 242.414 79.4005C243.758 78.9205 245.118 78.1205 246.494 77.0005L251.822 83.6725C249.902 85.0485 247.678 86.1045 245.15 86.8405C242.622 87.5765 240.142 87.9445 237.71 87.9445ZM251.822 83.6725L243.422 82.4245V69.7525H251.822V83.6725Z" fill="white"/>
<path d="M182.238 87.2725V53.6725H190.062L208.59 76.0405H204.894V53.6725H214.206V87.2725H206.382L187.854 64.9045H191.55V87.2725H182.238Z" fill="white"/>
<path d="M165.972 87.2725V53.6725H175.476V87.2725H165.972Z" fill="white"/>
<path d="M131.05 87.2725V53.6725H146.41C149.482 53.6725 152.122 54.1685 154.33 55.1605C156.57 56.1525 158.298 57.5925 159.514 59.4805C160.73 61.3365 161.338 63.5445 161.338 66.1045C161.338 68.6325 160.73 70.8245 159.514 72.6805C158.298 74.5365 156.57 75.9765 154.33 77.0005C152.122 77.9925 149.482 78.4885 146.41 78.4885H136.33L140.554 74.3605V87.2725H131.05ZM140.554 75.3685L136.33 71.0005H145.834C147.818 71.0005 149.29 70.5685 150.25 69.7045C151.242 68.8405 151.738 67.6405 151.738 66.1045C151.738 64.5365 151.242 63.3205 150.25 62.4565C149.29 61.5925 147.818 61.1605 145.834 61.1605H136.33L140.554 56.7925V75.3685Z" fill="white"/>
<path d="M96.1286 87.2725V53.6725H111.489C114.561 53.6725 117.201 54.1685 119.409 55.1605C121.649 56.1525 123.377 57.5925 124.593 59.4805C125.809 61.3365 126.417 63.5445 126.417 66.1045C126.417 68.6325 125.809 70.8245 124.593 72.6805C123.377 74.5365 121.649 75.9765 119.409 77.0005C117.201 77.9925 114.561 78.4885 111.489 78.4885H101.409L105.633 74.3605V87.2725H96.1286ZM105.633 75.3685L101.409 71.0005H110.913C112.897 71.0005 114.369 70.5685 115.329 69.7045C116.321 68.8405 116.817 67.6405 116.817 66.1045C116.817 64.5365 116.321 63.3205 115.329 62.4565C114.369 61.5925 112.897 61.1605 110.913 61.1605H101.409L105.633 56.7925V75.3685Z" fill="white"/>
<path d="M79.8629 87.2725V53.6725H89.3669V87.2725H79.8629Z" fill="white"/>
<path d="M63.6551 87.2725V53.6725H73.1591V87.2725H63.6551ZM41.1911 87.2725V53.6725H50.6951V87.2725H41.1911ZM50.0231 74.1685V66.2965H64.3271V74.1685H50.0231Z" fill="white"/>
<path d="M21.9209 87.9445C19.1689 87.9445 16.5129 87.6085 13.9529 86.9365C11.4249 86.2325 9.36093 85.3365 7.76093 84.2485L10.8809 77.2405C12.3849 78.2005 14.1129 79.0005 16.0649 79.6405C18.0489 80.2485 20.0169 80.5525 21.9689 80.5525C23.2809 80.5525 24.3369 80.4405 25.1369 80.2165C25.9369 79.9605 26.5129 79.6405 26.8649 79.2565C27.2489 78.8405 27.4409 78.3605 27.4409 77.8165C27.4409 77.0485 27.0889 76.4405 26.3849 75.9925C25.6809 75.5445 24.7689 75.1765 23.6489 74.8885C22.5289 74.6005 21.2809 74.3125 19.9049 74.0245C18.5609 73.7365 17.2009 73.3685 15.8249 72.9205C14.4809 72.4725 13.2489 71.8965 12.1289 71.1925C11.0089 70.4565 10.0969 69.5125 9.39293 68.3605C8.68893 67.1765 8.33693 65.6885 8.33693 63.8965C8.33693 61.8805 8.88093 60.0565 9.96893 58.4245C11.0889 56.7925 12.7529 55.4805 14.9609 54.4885C17.1689 53.4965 19.9209 53.0005 23.2169 53.0005C25.4249 53.0005 27.5849 53.2565 29.6969 53.7685C31.8409 54.2485 33.7449 54.9685 35.4089 55.9285L32.4809 62.9845C30.8809 62.1205 29.2969 61.4805 27.7289 61.0645C26.1609 60.6165 24.6409 60.3925 23.1689 60.3925C21.8569 60.3925 20.8009 60.5365 20.0009 60.8245C19.2009 61.0805 18.6249 61.4325 18.2729 61.8805C17.9209 62.3285 17.7449 62.8405 17.7449 63.4165C17.7449 64.1525 18.0809 64.7445 18.7529 65.1925C19.4569 65.6085 20.3689 65.9605 21.4889 66.2485C22.6409 66.5045 23.8889 66.7765 25.2329 67.0645C26.6089 67.3525 27.9689 67.7205 29.3129 68.1685C30.6889 68.5845 31.9369 69.1605 33.0569 69.8965C34.1769 70.6005 35.0729 71.5445 35.7449 72.7285C36.4489 73.8805 36.8009 75.3365 36.8009 77.0965C36.8009 79.0485 36.2409 80.8565 35.1209 82.5205C34.0329 84.1525 32.3849 85.4645 30.1769 86.4565C28.0009 87.4485 25.2489 87.9445 21.9209 87.9445Z" fill="white"/>
<path d="M150.962 37.2725L165.65 16.8725L165.602 23.6405L151.49 3.67245H162.194L171.218 16.6805L166.658 16.7285L175.538 3.67245H185.81L171.698 23.2565V16.5365L186.578 37.2725H175.634L166.466 23.5925H170.834L161.81 37.2725H150.962Z" fill="white"/>
<path d="M131.987 37.9445C129.299 37.9445 126.819 37.5125 124.547 36.6485C122.275 35.7845 120.291 34.5685 118.595 33.0005C116.931 31.4005 115.635 29.5445 114.707 27.4325C113.779 25.3205 113.315 23.0005 113.315 20.4725C113.315 17.9445 113.779 15.6245 114.707 13.5125C115.635 11.4005 116.931 9.56046 118.595 7.99246C120.291 6.39246 122.275 5.16046 124.547 4.29646C126.819 3.43246 129.299 3.00046 131.987 3.00046C134.707 3.00046 137.187 3.43246 139.427 4.29646C141.699 5.16046 143.667 6.39246 145.331 7.99246C146.995 9.56046 148.291 11.4005 149.219 13.5125C150.179 15.6245 150.659 17.9445 150.659 20.4725C150.659 23.0005 150.179 25.3365 149.219 27.4805C148.291 29.5925 146.995 31.4325 145.331 33.0005C143.667 34.5685 141.699 35.7845 139.427 36.6485C137.187 37.5125 134.707 37.9445 131.987 37.9445ZM131.987 30.0725C133.267 30.0725 134.451 29.8485 135.539 29.4005C136.659 28.9525 137.619 28.3125 138.419 27.4805C139.251 26.6165 139.891 25.5925 140.339 24.4085C140.819 23.2245 141.059 21.9125 141.059 20.4725C141.059 19.0005 140.819 17.6885 140.339 16.5365C139.891 15.3525 139.251 14.3445 138.419 13.5125C137.619 12.6485 136.659 11.9925 135.539 11.5445C134.451 11.0965 133.267 10.8725 131.987 10.8725C130.707 10.8725 129.507 11.0965 128.387 11.5445C127.299 11.9925 126.339 12.6485 125.507 13.5125C124.707 14.3445 124.067 15.3525 123.587 16.5365C123.139 17.6885 122.915 19.0005 122.915 20.4725C122.915 21.9125 123.139 23.2245 123.587 24.4085C124.067 25.5925 124.707 26.6165 125.507 27.4805C126.339 28.3125 127.299 28.9525 128.387 29.4005C129.507 29.8485 130.707 30.0725 131.987 30.0725Z" fill="white"/>
<path d="M78.152 37.2725V3.67245H95.336C99.752 3.67245 103.048 4.48845 105.224 6.12045C107.4 7.72046 108.488 9.83245 108.488 12.4565C108.488 14.1845 108.024 15.7045 107.096 17.0165C106.2 18.2965 104.92 19.3205 103.256 20.0885C101.624 20.8245 99.672 21.1925 97.4 21.1925L98.36 18.8885C100.728 18.8885 102.792 19.2565 104.552 19.9925C106.312 20.6965 107.672 21.7365 108.632 23.1125C109.624 24.4565 110.12 26.1045 110.12 28.0565C110.12 30.9685 108.936 33.2405 106.568 34.8725C104.232 36.4725 100.808 37.2725 96.296 37.2725H78.152ZM87.56 30.4085H95.528C97.16 30.4085 98.392 30.1365 99.224 29.5925C100.088 29.0165 100.52 28.1525 100.52 27.0005C100.52 25.8485 100.088 25.0005 99.224 24.4565C98.392 23.8805 97.16 23.5925 95.528 23.5925H86.888V17.0165H94.088C95.688 17.0165 96.888 16.7445 97.688 16.2005C98.488 15.6565 98.888 14.8405 98.888 13.7525C98.888 12.6645 98.488 11.8645 97.688 11.3525C96.888 10.8085 95.688 10.5365 94.088 10.5365H87.56V30.4085Z" fill="white"/>
<path d="M240.422 66.7529H244.431L244.337 66.6514C243.532 65.7791 242.72 65.1569 241.909 64.7344L241.562 64.5654L241.521 64.5479L241.482 64.5283C240.626 64.1107 239.612 63.8721 238.382 63.8721C237.255 63.8721 236.309 64.0474 235.508 64.3506C234.716 64.6503 234.09 65.0675 233.583 65.5938L233.543 65.6338C233.022 66.1547 232.582 66.8107 232.241 67.6465C231.956 68.3887 231.782 69.315 231.782 70.4727L231.79 70.8721C231.826 71.774 231.987 72.5645 232.247 73.2637C232.588 74.0945 233.031 74.7741 233.567 75.335C234.092 75.8529 234.728 76.2803 235.509 76.6113C236.306 76.9059 237.222 77.0723 238.286 77.0723L238.286 80.0725L237.763 80.0615C236.555 80.0125 235.434 79.7924 234.398 79.4005C233.246 78.9205 232.254 78.2645 231.422 77.4325C230.59 76.5685 229.934 75.5445 229.454 74.3605C229.062 73.3244 228.841 72.2027 228.792 70.9951L228.782 70.4725C228.782 69.0005 229.006 67.6885 229.454 66.5365C229.874 65.5007 230.429 64.5994 231.118 63.833L231.422 63.5125C232.15 62.7566 233.012 62.1601 234.01 61.7227L234.446 61.5445C235.63 61.0965 236.942 60.8725 238.382 60.8725L238.686 60.876C240.197 60.9134 241.568 61.2324 242.798 61.8325C243.974 62.3644 245.076 63.1411 246.105 64.1631L246.542 64.6165L252.59 59.1445C250.958 57.1605 248.894 55.6405 246.398 54.5845C243.902 53.5285 241.07 53.0005 237.902 53.0005C235.182 53.0005 232.67 53.4325 230.366 54.2965C228.094 55.1285 226.126 56.3285 224.462 57.8965L224.154 58.1934C222.637 59.6972 221.444 61.4543 220.574 63.4645C219.646 65.5765 219.182 67.9125 219.182 70.4725L219.188 70.9502C219.242 73.3258 219.704 75.5185 220.574 77.5285C221.502 79.6405 222.782 81.4805 224.414 83.0485C226.078 84.6165 228.046 85.8325 230.318 86.6965C232.448 87.4764 234.746 87.8907 237.214 87.9395L237.71 87.9445C239.99 87.9444 242.312 87.6215 244.677 86.9746L245.15 86.8405C247.52 86.1505 249.622 85.1792 251.458 83.9268L251.822 83.6725V69.7525H243.422L243.422 78.9814C243.085 79.1409 242.749 79.2808 242.414 79.4005C241.07 79.8485 239.694 80.0725 238.286 80.0725L238.286 77.0723C239.009 77.0722 239.72 76.9938 240.422 76.8398V66.7529ZM254.822 82.6221L256.138 84.2695L254.822 85.2119V87.1514L252.529 86.8096C250.563 88.0588 248.376 89.0255 245.988 89.7207C243.21 90.5295 240.448 90.9443 237.71 90.9443C234.922 90.9443 232.272 90.5343 229.782 89.6885L229.286 89.5137L229.269 89.5068L229.251 89.501C226.798 88.5682 224.615 87.2619 222.729 85.5742L222.356 85.2314L222.335 85.2119C220.534 83.482 219.1 81.4695 218.035 79.1943L217.827 78.7354L217.824 78.7275L217.82 78.7197C216.715 76.165 216.182 73.4028 216.182 70.4727C216.182 67.5487 216.712 64.8005 217.82 62.2725C218.907 59.7625 220.437 57.5669 222.404 55.7129C224.375 53.8555 226.691 52.4505 229.312 51.4873L229.816 51.3057C232.347 50.4262 235.05 50 237.901 50C241.404 50 244.644 50.5848 247.566 51.8213C250.483 53.0553 252.95 54.8596 254.906 57.2383L256.725 59.4492L248.651 66.7529H254.822V82.6221Z" fill="#00B2FF"/>
<path d="M204.894 53.6725L204.894 71.5771L190.062 53.6725H182.238V87.2725H191.55L191.55 69.3662L206.382 87.2725H214.206V53.6725H204.894ZM217.206 90.2725H204.972L194.55 77.6904V90.2725H179.238V50.6729H191.473L201.894 63.2529V50.6729H217.206V90.2725Z" fill="#00B2FF"/>
<path d="M165.972 53.6725V87.2725H175.476V53.6725H165.972ZM178.477 90.2725H162.973V50.6729H178.477V90.2725Z" fill="#00B2FF"/>
<path d="M128.051 50.6729H142.3L143.555 49.375V50.6729H146.41L146.41 53.6725H131.05V87.2725H140.554L140.555 78.4883L146.41 78.4885C149.482 78.4885 152.122 77.9925 154.33 77.0005C156.43 76.0405 158.08 74.7147 159.28 73.0234L159.514 72.6805C160.654 70.9404 161.26 68.905 161.331 66.5742L161.338 66.1045C161.338 63.5445 160.73 61.3365 159.514 59.4805C158.298 57.5925 156.57 56.1525 154.33 55.1605C152.261 54.2306 149.811 53.7368 146.981 53.6787L146.41 53.6725L146.41 50.6729C149.789 50.6729 152.864 51.2162 155.544 52.417C158.261 53.6203 160.461 55.4211 162.022 57.8359C163.606 60.2522 164.339 63.0525 164.339 66.1045L164.33 66.6689C164.244 69.4788 163.504 72.0645 162.023 74.3242C160.464 76.7043 158.274 78.496 155.578 79.7285L155.568 79.7334L155.56 79.7373C152.876 80.9429 149.796 81.4883 146.41 81.4883H143.555V90.2725H128.051V50.6729ZM148.738 66.1045C148.738 65.3316 148.549 64.9914 148.36 64.7949L148.28 64.7188L148.262 64.7031L148.243 64.6865C148.064 64.5255 147.459 64.1602 145.834 64.1602H143.555V68H145.834L145.834 71.0005L140.555 71V61.1602L145.834 61.1605C147.818 61.1605 149.29 61.5925 150.25 62.4565C151.242 63.3205 151.738 64.5365 151.738 66.1045L151.732 66.3887C151.674 67.7892 151.18 68.8945 150.25 69.7045C149.29 70.5685 147.818 71.0005 145.834 71.0005L145.834 68C147.459 68 148.064 67.6356 148.243 67.4746L148.262 67.458L148.28 67.4424C148.506 67.2457 148.738 66.9335 148.738 66.1045Z" fill="#00B2FF"/>
<path d="M93.1289 50.6729H107.378L108.633 49.375V50.6729H111.488L111.489 53.6725H96.1286V87.2725H105.633L105.633 78.4883L111.489 78.4885C114.561 78.4885 117.201 77.9925 119.409 77.0005C121.509 76.0405 123.158 74.7147 124.358 73.0234L124.593 72.6805C125.733 70.9404 126.338 68.905 126.409 66.5742L126.417 66.1045C126.417 63.5445 125.809 61.3365 124.593 59.4805C123.377 57.5925 121.649 56.1525 119.409 55.1605C117.339 54.2306 114.889 53.7368 112.06 53.6787L111.489 53.6725L111.488 50.6729C114.867 50.6729 117.942 51.2162 120.622 52.417C123.339 53.6203 125.539 55.4211 127.101 57.8359C128.684 60.2522 129.417 63.0525 129.417 66.1045L129.408 66.6689C129.322 69.4788 128.582 72.0645 127.102 74.3242C125.542 76.7043 123.352 78.496 120.656 79.7285L120.646 79.7334L120.638 79.7373C117.954 80.9429 114.874 81.4883 111.488 81.4883H108.633V90.2725H93.1289V50.6729ZM113.816 66.1045C113.816 65.3316 113.628 64.9914 113.438 64.7949L113.358 64.7188L113.34 64.7031L113.321 64.6865C113.142 64.5255 112.538 64.1602 110.912 64.1602H108.633V68H110.912L110.913 71.0005L105.633 71V61.1602L110.913 61.1605C112.897 61.1605 114.369 61.5925 115.329 62.4565C116.321 63.3205 116.817 64.5365 116.817 66.1045L116.811 66.3887C116.752 67.7892 116.259 68.8945 115.329 69.7045C114.369 70.5685 112.897 71.0005 110.913 71.0005L110.912 68C112.537 68 113.142 67.6356 113.321 67.4746L113.34 67.458L113.358 67.4424C113.584 67.2457 113.816 66.9335 113.816 66.1045Z" fill="#00B2FF"/>
<path d="M79.8629 53.6725V87.2725H89.3669V53.6725H79.8629ZM92.3672 90.2725H76.8633V50.6729H92.3672V90.2725Z" fill="#00B2FF"/>
<path d="M50.6951 53.6725H41.1911V87.2725H50.6951L50.6953 74.1689H63.6553L63.6551 87.2725H73.1591V53.6725H63.6551L63.6553 66.2969H50.6953L50.6951 53.6725ZM76.1592 90.2725H60.6553V77.1689H53.6953V90.2725H38.1914V50.6729H53.6953V63.2969H60.6553V50.6729H76.1592V90.2725Z" fill="#00B2FF"/>
<path d="M13.1602 75.1113C14.2665 75.7454 15.5317 76.3056 16.9707 76.7793C18.6635 77.2954 20.3121 77.5474 21.9258 77.5518C21.4023 77.4256 20.8507 77.2983 20.2705 77.1709L19.29 76.9609L19.2832 76.959L19.2764 76.958C18.1883 76.7249 17.0948 76.4439 15.9961 76.1162L14.8965 75.7734L14.8857 75.7695L14.876 75.7666C14.289 75.5709 13.717 75.3521 13.1602 75.1113ZM23.1689 63.3926C22.9425 63.3926 22.7346 63.3989 22.5439 63.4082C23.5701 63.6351 24.6711 63.8758 25.8477 64.1279C27.3375 64.4398 28.8091 64.838 30.2617 65.3223C30.4537 65.3812 30.6433 65.4423 30.832 65.5068C29.6712 64.8964 28.5464 64.4322 27.4551 64.1045L26.96 63.9639L26.9316 63.957L26.9043 63.9492C25.5759 63.5697 24.3339 63.3926 23.1689 63.3926ZM5.3457 63.4131C5.42886 61.0062 6.13579 58.7662 7.47266 56.7607L7.48438 56.7432L7.49512 56.7266C8.98942 54.5492 11.1333 52.9193 13.7314 51.752C16.439 50.5355 19.6415 50 23.2168 50C25.641 50 28.0211 50.2802 30.3516 50.8408C30.362 50.8432 30.3733 50.8453 30.3838 50.8477C30.3903 50.8492 30.3968 50.851 30.4033 50.8525C32.6324 51.3559 34.6847 52.1042 36.5371 53.1211L36.9082 53.3301L39.1895 54.6455L34.0654 66.9922C34.2636 67.1097 34.4594 67.2307 34.6523 67.3564C36.1775 68.3151 37.3999 69.6 38.3047 71.1641C39.3715 72.9098 39.8008 74.9488 39.8008 77.0967L39.792 77.5752C39.7048 79.9555 38.9647 82.1759 37.6162 84.1836C36.1493 86.384 34.0085 88.0242 31.4062 89.1934L31.4053 89.1924C28.7202 90.4128 25.5139 90.9443 21.9209 90.9443C19.1095 90.9443 16.3739 90.6225 13.7207 89.9727L13.1914 89.8379L13.1484 89.8262C10.5815 89.1113 8.32092 88.1783 6.44434 86.9736L6.07422 86.7295L4 85.3193L9.49512 72.9766C8.44228 72.121 7.55143 71.1004 6.83301 69.9248L6.82324 69.9092L6.81445 69.8936C5.76348 68.126 5.33692 66.0694 5.33691 63.8965L5.3457 63.4131ZM8.34082 64.2285C8.38202 65.8729 8.73296 67.2504 9.39293 68.3605C10.0969 69.5125 11.0089 70.4565 12.1289 71.1925C13.2489 71.8965 14.4809 72.4725 15.8249 72.9205C17.2009 73.3685 18.5609 73.7365 19.9049 74.0245C21.2809 74.3125 22.5289 74.6005 23.6489 74.8885C24.7689 75.1765 25.6809 75.5445 26.3849 75.9925C27.0889 76.4405 27.4409 77.0485 27.4409 77.8165L27.4316 78.0176C27.3896 78.4795 27.2009 78.8925 26.8649 79.2565C26.5129 79.6405 25.9369 79.9605 25.1369 80.2165C24.3369 80.4405 23.2809 80.5525 21.9689 80.5525L21.2363 80.5381C19.5248 80.4716 17.801 80.1725 16.0649 79.6405C14.1129 79.0005 12.3849 78.2005 10.8809 77.2405L7.76093 84.2485C9.36093 85.3365 11.4249 86.2325 13.9529 86.9365C16.5129 87.6085 19.1689 87.9445 21.9209 87.9445C25.2489 87.9445 28.0009 87.4485 30.1769 86.4565C32.3849 85.4645 34.0329 84.1525 35.1209 82.5205C36.1709 80.9605 36.7283 79.274 36.7939 77.4609L36.8009 77.0965C36.8009 75.3365 36.4489 73.8805 35.7449 72.7285C35.115 71.6185 34.2883 70.7194 33.2646 70.0312L33.0569 69.8965C32.0771 69.2526 30.999 68.731 29.8232 68.332L29.3129 68.1685C28.1369 67.7765 26.9485 67.4453 25.748 67.1758L25.2329 67.0645C23.8889 66.7765 22.6409 66.5045 21.4889 66.2485C20.3689 65.9605 19.4569 65.6085 18.7529 65.1925C18.0809 64.7445 17.7449 64.1525 17.7449 63.4165C17.7449 62.8405 17.9209 62.3285 18.2729 61.8805C18.6249 61.4325 19.2009 61.0805 20.0009 60.8245C20.8009 60.5365 21.8569 60.3925 23.1689 60.3925L23.7236 60.4033C25.0219 60.4524 26.3572 60.6726 27.7289 61.0645C29.2969 61.4805 30.8809 62.1205 32.4809 62.9845L35.4089 55.9285C33.9528 55.0884 32.3129 54.4325 30.4893 53.96L29.6969 53.7685C27.5849 53.2565 25.4249 53.0005 23.2169 53.0005C19.9209 53.0005 17.1689 53.4965 14.9609 54.4885L14.5537 54.6777C12.5472 55.6453 11.019 56.8943 9.96893 58.4245C8.88093 60.0565 8.33693 61.8805 8.33693 63.8965L8.34082 64.2285Z" fill="#00B2FF"/>
<path d="M163.764 0.672852L168.598 7.64258L168.697 7.50488V7.20996L169.11 7.78613L173.95 0.672852H191.669L177.809 19.9072L192.423 40.2725H174.033L168.78 32.4355L168.697 32.5518V32.3105L168.687 32.2949L168.538 32.5195L168.535 32.9893L168.376 32.7646L163.425 40.2725H145.104L159.525 20.2422L145.696 0.672852H163.764ZM151.49 3.67245L163.211 20.2578L150.962 37.2725H161.81L168.667 26.877L175.634 37.2725H186.578L174.113 19.9033L185.81 3.67245H175.538L168.931 13.3848L162.194 3.67245H151.49Z" fill="#00B2FF"/>
<path d="M150.659 20.4725C150.659 17.9445 150.179 15.6245 149.219 13.5125C148.291 11.4005 146.995 9.56046 145.331 7.99246C143.771 6.49238 141.943 5.31603 139.849 4.46289L139.427 4.29646C137.187 3.43246 134.707 3.00046 131.987 3.00046C129.299 3.00046 126.819 3.43246 124.547 4.29646L124.124 4.46289C122.028 5.31598 120.185 6.49255 118.595 7.99246L118.287 8.29004C116.77 9.79189 115.577 11.5325 114.707 13.5125L114.538 13.9111C113.723 15.9155 113.315 18.1025 113.315 20.4725L113.32 20.9443C113.375 23.2898 113.837 25.4526 114.707 27.4325C115.635 29.5445 116.931 31.4005 118.595 33.0005C120.291 34.5685 122.275 35.7845 124.547 36.6485C126.819 37.5125 129.299 37.9445 131.987 37.9445C134.707 37.9445 137.187 37.5125 139.427 36.6485C141.557 35.8385 143.419 34.7187 145.015 33.29L145.331 33.0005C146.995 31.4325 148.291 29.5925 149.219 27.4805C150.119 25.4705 150.597 23.2918 150.653 20.9443L150.659 20.4725ZM138.059 20.4727C138.059 19.4701 137.916 18.6483 137.678 17.9717L137.569 17.6904L137.551 17.6445L137.533 17.5977C137.263 16.883 136.908 16.3054 136.483 15.8311L136.297 15.6338L136.257 15.5928L136.218 15.5508C135.789 15.0878 135.287 14.7202 134.688 14.4434L134.425 14.3301L134.41 14.3242L134.396 14.3184C133.702 14.0322 132.909 13.8721 131.986 13.8721C131.069 13.8721 130.254 14.0305 129.513 14.3252C128.823 14.6118 128.213 15.0263 127.667 15.5928C127.163 16.1177 126.724 16.787 126.374 17.6455C126.089 18.3879 125.915 19.3146 125.915 20.4727L125.923 20.8867C125.96 21.8183 126.123 22.619 126.381 23.3125C126.726 24.1532 127.16 24.8381 127.67 25.3994C128.211 25.93 128.823 26.3344 129.524 26.624C130.262 26.9157 131.074 27.0722 131.986 27.0723L131.987 30.0725C130.867 30.0724 129.808 29.9006 128.811 29.5576L128.387 29.4005C127.434 29.0084 126.58 28.4694 125.824 27.7832L125.507 27.4805C124.707 26.6165 124.067 25.5925 123.587 24.4085C123.195 23.3726 122.974 22.2386 122.925 21.0068L122.915 20.4725C122.915 19.1844 123.086 18.0186 123.429 16.9756L123.587 16.5365C124.067 15.3525 124.707 14.3445 125.507 13.5125C126.235 12.7566 127.061 12.1601 127.984 11.7227L128.387 11.5445C129.507 11.0965 130.707 10.8725 131.987 10.8725C133.267 10.8725 134.451 11.0965 135.539 11.5445C136.659 11.9925 137.619 12.6485 138.419 13.5125C139.251 14.3445 139.891 15.3525 140.339 16.5365C140.819 17.6885 141.059 19.0005 141.059 20.4725L141.048 21.0068C140.995 22.2386 140.759 23.3726 140.339 24.4085C139.891 25.5925 139.251 26.6165 138.419 27.4805C137.619 28.3125 136.659 28.9525 135.539 29.4005C134.451 29.8485 133.267 30.0725 131.987 30.0725L131.986 27.0723C132.909 27.0723 133.702 26.9121 134.396 26.626L134.41 26.6211L134.425 26.6152C135.167 26.3182 135.765 25.9122 136.256 25.4014L136.258 25.3994C136.793 24.8441 137.221 24.1721 137.533 23.3467L137.545 23.3135L137.559 23.2812C137.876 22.4981 138.059 21.5751 138.059 20.4727ZM153.652 21.0176C153.587 23.7341 153.031 26.3077 151.957 28.7061L151.956 28.7051C150.868 31.1745 149.342 33.3416 147.388 35.1836C145.423 37.0353 143.116 38.4516 140.505 39.4463L140.506 39.4473C137.879 40.4605 135.027 40.9443 131.986 40.9443C129.161 40.9443 126.483 40.5175 123.979 39.6348L123.48 39.4521C120.869 38.4589 118.55 37.0453 116.558 35.2031L116.536 35.1836L116.516 35.1631C114.691 33.4085 113.238 31.3822 112.169 29.0996L111.96 28.6396C110.849 26.1122 110.314 23.3759 110.314 20.4727C110.314 17.5693 110.849 14.8331 111.96 12.3057C113.048 9.82874 114.578 7.65604 116.537 5.80957C118.532 3.92807 120.856 2.49006 123.48 1.49219C126.127 0.485743 128.973 3.10731e-05 131.986 0C135.022 0 137.87 0.482327 140.493 1.49219C143.122 2.49197 145.44 3.93555 147.41 5.83008C149.35 7.66361 150.866 9.81788 151.949 12.2715C153.102 14.8071 153.658 17.5555 153.658 20.4727L153.652 21.0176Z" fill="#00B2FF"/>
<path d="M75.1523 0.672852H95.3359L95.336 3.67245H78.152V37.2725H96.296C100.526 37.2725 103.8 36.5693 106.117 35.1631L106.568 34.8725C108.788 33.3424 109.968 31.2497 110.106 28.5947L110.12 28.0565C110.12 26.1045 109.624 24.4565 108.632 23.1125C107.672 21.7365 106.312 20.6965 104.552 19.9925C104.348 19.9072 104.14 19.8264 103.928 19.751C105.268 19.0286 106.325 18.1181 107.096 17.0165C107.966 15.7865 108.428 14.3738 108.482 12.7783L108.488 12.4565C108.488 9.83245 107.4 7.72046 105.224 6.12045C103.184 4.59058 100.159 3.77721 96.1504 3.68164L95.336 3.67245L95.3359 0.672852C100.016 0.672852 104.072 1.51872 107 3.70312C109.918 5.84881 111.488 8.84543 111.488 12.4561L111.48 12.8857C111.407 15.0168 110.779 16.9979 109.553 18.7363C109.424 18.9197 109.29 19.0974 109.151 19.2715C109.882 19.8888 110.534 20.5943 111.093 21.3955C112.494 23.3251 113.12 25.6024 113.12 28.0566L113.115 28.4189C113.015 32.1397 111.363 35.2113 108.271 37.3428L108.264 37.3477C105.212 39.4377 101.083 40.2725 96.2959 40.2725H75.1523V0.672852ZM97.5166 26.9229C97.4221 26.8574 97.0147 26.6535 96.001 26.6035L95.5283 26.5928H90.5596V27.4082H95.5283L95.528 30.4085H87.56L87.5596 23.5928L95.528 23.5925C97.16 23.5925 98.392 23.8805 99.224 24.4565C100.088 25.0005 100.52 25.8485 100.52 27.0005C100.52 28.1525 100.088 29.0165 99.224 29.5925L99.0635 29.6914C98.2367 30.1695 97.0579 30.4084 95.528 30.4085L95.5283 27.4082C96.74 27.4082 97.3088 27.2191 97.5146 27.1182C97.5175 27.0886 97.5195 27.0492 97.5195 27C97.5195 26.9703 97.5179 26.9447 97.5166 26.9229ZM98.8838 13.9531C98.837 14.9411 98.4377 15.6904 97.688 16.2005C96.9879 16.6765 95.9816 16.9444 94.6689 17.0039L94.088 17.0165L94.0879 14.0166C95.1366 14.0166 95.6641 13.8663 95.8828 13.7764C95.6641 13.6865 95.1365 13.5361 94.0879 13.5361H90.5596V14.0166H94.0879L94.088 17.0165L87.5596 17.0166L87.56 10.5365H94.088C95.688 10.5365 96.888 10.8085 97.688 11.3525C98.488 11.8645 98.888 12.6645 98.888 13.7525L98.8838 13.9531Z" fill="#00B2FF"/>
</g>
<defs>
<filter id="filter0_d_27_206" x="0" y="0" width="260.725" height="98.9443" filterUnits="userSpaceOnUse" color-interpolation-filters="sRGB">
<feFlood flood-opacity="0" result="BackgroundImageFix"/>
<feColorMatrix in="SourceAlpha" type="matrix" values="0 0 0 0 0 0 0 0 0 0 0 0 0 0 0 0 0 0 127 0" result="hardAlpha"/>
<feOffset dy="4"/>
<feGaussianBlur stdDeviation="2"/>
<feComposite in2="hardAlpha" operator="out"/>
<feColorMatrix type="matrix" values="0 0 0 0 0 0 0 0 0 0 0 0 0 0 0 0 0 0 0.25 0"/>
<feBlend mode="normal" in2="BackgroundImageFix" result="effect1_dropShadow_27_206"/>
<feBlend mode="normal" in="SourceGraphic" in2="effect1_dropShadow_27_206" result="shape"/>
</filter>
</defs>
</svg>
