<svg width="50" height="50" viewBox="0 0 50 50" fill="none" xmlns="http://www.w3.org/2000/svg">
<circle cx="25" cy="25" r="23.5" fill="url(#paint0_radial_1_40)" stroke="#A86E00" stroke-width="3"/>
<circle cx="25" cy="25" r="10" fill="#A86E00"/>
<rect x="22" y="11" width="6" height="6" rx="1" fill="#A86E00"/>
<rect x="13" y="17.2426" width="6" height="6" rx="1" transform="rotate(-45 13 17.2426)" fill="#A86E00"/>
<rect x="11" y="28" width="6" height="6" rx="1" transform="rotate(-90 11 28)" fill="#A86E00"/>
<rect x="17.2426" y="36.4853" width="6" height="6" rx="1" transform="rotate(-135 17.2426 36.4853)" fill="#A86E00"/>
<rect x="28" y="39" width="6" height="6" rx="1" transform="rotate(-180 28 39)" fill="#A86E00"/>
<rect x="36.4853" y="32.2426" width="6" height="6" rx="1" transform="rotate(135 36.4853 32.2426)" fill="#A86E00"/>
<rect x="39" y="22" width="6" height="6" rx="1" transform="rotate(90 39 22)" fill="#A86E00"/>
<rect x="32.2426" y="13" width="6" height="6" rx="1" transform="rotate(45 32.2426 13)" fill="#A86E00"/>
<circle cx="25" cy="25" r="5" fill="url(#paint1_linear_1_40)"/>
<defs>
<radialGradient id="paint0_radial_1_40" cx="0" cy="0" r="1" gradientUnits="userSpaceOnUse" gradientTransform="translate(25 25) rotate(90) scale(22)">
<stop offset="1" stop-color="#FFEF00"/>
</radialGradient>
<linearGradient id="paint1_linear_1_40" x1="25" y1="20" x2="25" y2="30" gradientUnits="userSpaceOnUse">
<stop stop-color="#FFEF00"/>
</linearGradient>
</defs>
</svg>
